<svg xmlns="http://www.w3.org/2000/svg" viewBox="0 0 860 334" width="860" height="334" xmlns:c2pa="http://c2pa.org/manifest"><metadata><c2pa:manifest>AAAWgmp1bWIAAAAeanVtZGMycGEAEQAQgAAAqgA4m3EDYzJwYQAAABZcanVtYgAAAEdqdW1kYzJtYQARABCAAACqADibcQN1cm46YzJwYTpmYTY4MTAxNi1kMmZlLTRjYjktYWU2Mi1iM2FiM2NhNTRhOTQAAAADl2p1bWIAAAApanVtZGMyYXMAEQAQgAAAqgA4m3EDYzJwYS5hc3NlcnRpb25zAAAAALxqdW1iAAAARGp1bWRjYm9yABEAEIAAAKoAOJtxE2MycGEuaW5ncmVkaWVudC52MwAAAAAYYzJzaPrk0jeCrYW08aq/90x3Pq4AAABwY2JvcqNpZGM6Zm9ybWF0bWltYWdlL3N2Zyt4bWxqaW5zdGFuY2VJRHgseG1wOmlpZDo1NTZhZTllMS1lNTRiLTQxYTItOTJjMy1kOWU2ZDc4YWY4YmVscmVsYXRpb25zaGlwaHBhcmVudE9mAAAB4mp1bWIAAABBanVtZGNib3IAEQAQgAAAqgA4m3ETYzJwYS5hY3Rpb25zLnYyAAAAABhjMnNoHy7WteaVnMNRYmgscyoT7QAAAZljYm9yomdhY3Rpb25zgqJmYWN0aW9ua2MycGEub3BlbmVkanBhcmFtZXRlcnOha2luZ3JlZGllbnRzgaJjdXJseC1zZWxmI2p1bWJmPWMycGEuYXNzZXJ0aW9ucy9jMnBhLmluZ3JlZGllbnQudjNkaGFzaFggaQ4Wo+OuZeacx3JC8xxIRcelCRUSWmI7RTYnCnUAx4qkZmFjdGlvbngdY29tLmFudGhyb3BpYy5jbGF1ZGUucHJvdmlkZWRqcGFyYW1ldGVyc6F4H2NvbS5hbnRocm9waWMub3JpZ2luLWNvbmZpZGVuY2VndW5rbm93bmtkZXNjcmlwdGlvbnhmQ2xhdWRlIHByb3ZpZGVkIHRoaXMgZmlsZSBhdCB0aGUgcmVxdWVzdCBvZiBhIHVzZXIgYW5kIG1heSBoYXZlIGNyZWF0ZWQgb3IgbW9kaWZpZWQgdGhlIGZpbGUgY29udGVudHMubXNvZnR3YXJlQWdlbnShZG5hbWVmQ2xhdWRlcmFsbEFjdGlvbnNJbmNsdWRlZPUAAADIanVtYgAAAEBqdW1kY2JvcgARABCAAACqADibcRNjMnBhLmhhc2guZGF0YQAAAAAYYzJzaFe1aNzeVB6GFKaoN+MRwi4AAACAY2JvcqVjYWxnZnNoYTI1NmNwYWRNAAAAAAAAAAAAAAAAAGRoYXNoWCCz0kUHuISoKgNAnu9zrkIa5BzqE1+ZxmcMtQ9oLLe56mRuYW1lbmp1bWJmIG1hbmlmZXN0amV4Y2x1c2lvbnOBomVzdGFydBiWZmxlbmd0aBkeBAAAAj5qdW1iAAAAJ2p1bWRjMmNsABEAEIAAAKoAOJtxA2MycGEuY2xhaW0udjIAAAACD2Nib3KlY2FsZ2ZzaGEyNTZpc2lnbmF0dXJleE1zZWxmI2p1bWJmPS9jMnBhL3VybjpjMnBhOmZhNjgxMDE2LWQyZmUtNGNiOS1hZTYyLWIzYWIzY2E1NGE5NC9jMnBhLnNpZ25hdHVyZWppbnN0YW5jZUlEeCx4bXA6aWlkOmVkZjgyZmVkLTI2ZjQtNGVmOC1iNmY4LWQ2ZDkxMmEwNDhjMXJjcmVhdGVkX2Fzc2VydGlvbnODomN1cmx4LXNlbGYjanVtYmY9YzJwYS5hc3NlcnRpb25zL2MycGEuaW5ncmVkaWVudC52M2RoYXNoWCBpDhaj465l5pzHckLzHEhFx6UJFRJaYjtFNicKdQDHiqJjdXJseCpzZWxmI2p1bWJmPWMycGEuYXNzZXJ0aW9ucy9jMnBhLmFjdGlvbnMudjJkaGFzaFggv0XpRhEQGSgXyKpcEw477JqBJC1bk6RzqpoQ4YS6qbGiY3VybHgpc2VsZiNqdW1iZj1jMnBhLmFzc2VydGlvbnMvYzJwYS5oYXNoLmRhdGFkaGFzaFgg31h3nm/Lut4W5Ujk8PtHhFCu2Y8Mw6t9o9rHcetEVWx0Y2xhaW1fZ2VuZXJhdG9yX2luZm+jZG5hbWVvQW50aHJvcGljIEZpbGVzZ3ZlcnNpb25lMS4wLjBrc3BlY1ZlcnNpb25lMi40LjAAABA4anVtYgAAAChqdW1kYzJjcwARABCAAACqADibcQNjMnBhLnNpZ25hdHVyZQAAABAIY2JvctKEWQISogEmGCFZAgowggIGMIIBjaADAgECAhRA5aAK7sI50L64g/oGQgU9Z1UTADAKBggqhkjOPQQDAzBJMRcwFQYDVQQKEw5BbnRocm9waWMsIFBCQzEuMCwGA1UEAxMlQW50aHJvcGljIENvbnRlbnQgQ3JlZGVudGlhbHMgUm9vdCBDQTAeFw0yNjA4MDcxODQzNTZaFw0yODA4MDYxOTQzNTZaMEQxFzAVBgNVBAoTDkFudGhyb3BpYywgUEJDMSkwJwYDVQQDEyBBbnRocm9waWMgQ2xhdWRlIENvbnRlbnQgU2lnbmluZzBZMBMGByqGSM49AgEGCCqGSM49AwEHA0IABJh6CmvLUBgFFNU0vUKlOVtE6djd17L5SuwX0LemFisBM3dkd/3cyjxFA3Qo5S46fX0/ihY0VZ7mfb9KF703t5OjWDBWMA4GA1UdDwEB/wQEAwIHgDAVBgNVHSUEDjAMBgorBgEEAYPoXgIBMAwGA1UdEwEB/wQCMAAwHwYDVR0jBBgwFoAUzlHiBIFOZFsj+OPEz5o+nMHXXMIwCgYIKoZIzj0EAwMDZwAwZAIwMXMdFJ4BetLLVY7ORuE9noqbbAZOZn/aArXyTwFAZfKrPzxF2vPoJNf1+UCdg1XGAjBwX1zd9WGqYkqmL5SFqw1QySjr1zJfpJM9+1rdDwSPLMOPOjKuiXjoU/pUUeG9RwmhY3BhZFkNngAAAAAAAAAAAAAAAAAAAAAAAAAAAAAAAAAAAAAAAAAAAAAAAAAAAAAAAAAAAAAAAAAAAAAAAAAAAAAAAAAAAAAAAAAAAAAAAAAAAAAAAAAAAAAAAAAAAAAAAAAAAAAAAAAAAAAAAAAAAAAAAAAAAAAAAAAAAAAAAAAAAAAAAAAAAAAAAAAAAAAAAAAAAAAAAAAAAAAAAAAAAAAAAAAAAAAAAAAAAAAAAAAAAAAAAAAAAAAAAAAAAAAAAAAAAAAAAAAAAAAAAAAAAAAAAAAAAAAAAAAAAAAAAAAAAAAAAAAAAAAAAAAAAAAAAAAAAAAAAAAAAAAAAAAAAAAAAAAAAAAAAAAAAAAAAAAAAAAAAAAAAAAAAAAAAAAAAAAAAAAAAAAAAAAAAAAAAAAAAAAAAAAAAAAAAAAAAAAAAAAAAAAAAAAAAAAAAAAAAAAAAAAAAAAAAAAAAAAAAAAAAAAAAAAAAAAAAAAAAAAAAAAAAAAAAAAAAAAAAAAAAAAAAAAAAAAAAAAAAAAAAAAAAAAAAAAAAAAAAAAAAAAAAAAAAAAAAAAAAAAAAAAAAAAAAAAAAAAAAAAAAAAAAAAAAAAAAAAAAAAAAAAAAAAAAAAAAAAAAAAAAAAAAAAAAAAAAAAAAAAAAAAAAAAAAAAAAAAAAAAAAAAAAAAAAAAAAAAAAAAAAAAAAAAAAAAAAAAAAAAAAAAAAAAAAAAAAAAAAAAAAAAAAAAAAAAAAAAAAAAAAAAAAAAAAAAAAAAAAAAAAAAAAAAAAAAAAAAAAAAAAAAAAAAAAAAAAAAAAAAAAAAAAAAAAAAAAAAAAAAAAAAAAAAAAAAAAAAAAAAAAAAAAAAAAAAAAAAAAAAAAAAAAAAAAAAAAAAAAAAAAAAAAAAAAAAAAAAAAAAAAAAAAAAAAAAAAAAAAAAAAAAAAAAAAAAAAAAAAAAAAAAAAAAAAAAAAAAAAAAAAAAAAAAAAAAAAAAAAAAAAAAAAAAAAAAAAAAAAAAAAAAAAAAAAAAAAAAAAAAAAAAAAAAAAAAAAAAAAAAAAAAAAAAAAAAAAAAAAAAAAAAAAAAAAAAAAAAAAAAAAAAAAAAAAAAAAAAAAAAAAAAAAAAAAAAAAAAAAAAAAAAAAAAAAAAAAAAAAAAAAAAAAAAAAAAAAAAAAAAAAAAAAAAAAAAAAAAAAAAAAAAAAAAAAAAAAAAAAAAAAAAAAAAAAAAAAAAAAAAAAAAAAAAAAAAAAAAAAAAAAAAAAAAAAAAAAAAAAAAAAAAAAAAAAAAAAAAAAAAAAAAAAAAAAAAAAAAAAAAAAAAAAAAAAAAAAAAAAAAAAAAAAAAAAAAAAAAAAAAAAAAAAAAAAAAAAAAAAAAAAAAAAAAAAAAAAAAAAAAAAAAAAAAAAAAAAAAAAAAAAAAAAAAAAAAAAAAAAAAAAAAAAAAAAAAAAAAAAAAAAAAAAAAAAAAAAAAAAAAAAAAAAAAAAAAAAAAAAAAAAAAAAAAAAAAAAAAAAAAAAAAAAAAAAAAAAAAAAAAAAAAAAAAAAAAAAAAAAAAAAAAAAAAAAAAAAAAAAAAAAAAAAAAAAAAAAAAAAAAAAAAAAAAAAAAAAAAAAAAAAAAAAAAAAAAAAAAAAAAAAAAAAAAAAAAAAAAAAAAAAAAAAAAAAAAAAAAAAAAAAAAAAAAAAAAAAAAAAAAAAAAAAAAAAAAAAAAAAAAAAAAAAAAAAAAAAAAAAAAAAAAAAAAAAAAAAAAAAAAAAAAAAAAAAAAAAAAAAAAAAAAAAAAAAAAAAAAAAAAAAAAAAAAAAAAAAAAAAAAAAAAAAAAAAAAAAAAAAAAAAAAAAAAAAAAAAAAAAAAAAAAAAAAAAAAAAAAAAAAAAAAAAAAAAAAAAAAAAAAAAAAAAAAAAAAAAAAAAAAAAAAAAAAAAAAAAAAAAAAAAAAAAAAAAAAAAAAAAAAAAAAAAAAAAAAAAAAAAAAAAAAAAAAAAAAAAAAAAAAAAAAAAAAAAAAAAAAAAAAAAAAAAAAAAAAAAAAAAAAAAAAAAAAAAAAAAAAAAAAAAAAAAAAAAAAAAAAAAAAAAAAAAAAAAAAAAAAAAAAAAAAAAAAAAAAAAAAAAAAAAAAAAAAAAAAAAAAAAAAAAAAAAAAAAAAAAAAAAAAAAAAAAAAAAAAAAAAAAAAAAAAAAAAAAAAAAAAAAAAAAAAAAAAAAAAAAAAAAAAAAAAAAAAAAAAAAAAAAAAAAAAAAAAAAAAAAAAAAAAAAAAAAAAAAAAAAAAAAAAAAAAAAAAAAAAAAAAAAAAAAAAAAAAAAAAAAAAAAAAAAAAAAAAAAAAAAAAAAAAAAAAAAAAAAAAAAAAAAAAAAAAAAAAAAAAAAAAAAAAAAAAAAAAAAAAAAAAAAAAAAAAAAAAAAAAAAAAAAAAAAAAAAAAAAAAAAAAAAAAAAAAAAAAAAAAAAAAAAAAAAAAAAAAAAAAAAAAAAAAAAAAAAAAAAAAAAAAAAAAAAAAAAAAAAAAAAAAAAAAAAAAAAAAAAAAAAAAAAAAAAAAAAAAAAAAAAAAAAAAAAAAAAAAAAAAAAAAAAAAAAAAAAAAAAAAAAAAAAAAAAAAAAAAAAAAAAAAAAAAAAAAAAAAAAAAAAAAAAAAAAAAAAAAAAAAAAAAAAAAAAAAAAAAAAAAAAAAAAAAAAAAAAAAAAAAAAAAAAAAAAAAAAAAAAAAAAAAAAAAAAAAAAAAAAAAAAAAAAAAAAAAAAAAAAAAAAAAAAAAAAAAAAAAAAAAAAAAAAAAAAAAAAAAAAAAAAAAAAAAAAAAAAAAAAAAAAAAAAAAAAAAAAAAAAAAAAAAAAAAAAAAAAAAAAAAAAAAAAAAAAAAAAAAAAAAAAAAAAAAAAAAAAAAAAAAAAAAAAAAAAAAAAAAAAAAAAAAAAAAAAAAAAAAAAAAAAAAAAAAAAAAAAAAAAAAAAAAAAAAAAAAAAAAAAAAAAAAAAAAAAAAAAAAAAAAAAAAAAAAAAAAAAAAAAAAAAAAAAAAAAAAAAAAAAAAAAAAAAAAAAAAAAAAAAAAAAAAAAAAAAAAAAAAAAAAAAAAAAAAAAAAAAAAAAAAAAAAAAAAAAAAAAAAAAAAAAAAAAAAAAAAAAAAAAAAAAAAAAAAAAAAAAAAAAAAAAAAAAAAAAAAAAAAAAAAAAAAAAAAAAAAAAAAAAAAAAAAAAAAAAAAAAAAAAAAAAAAAAAAAAAAAAAAAAAAAAAAAAAAAAAAAAAAAAAAAAAAAAAAAAAAAAAAAAAAAAAAAAAAAAAAAAAAAAAAAAAAAAAAAAAAAAAAAAAAAAAAAAAAAAAAAAAAAAAAAAAAAAAAAAAAAAAAAAAAAAAAAAAAAAAAAAAAAAAAAAAAAAAAAAAAAAAAAAAAAAAAAAAAAAAAAAAAAAAAAAAAAAAAAAAAAAAAAAAAAAAAAAAAAAAAAAAAAAAAAAAAAAAAAAAAAAAAAAAAAAAAAAAAAAAAAAAAAAAAAAAAAAAAAAAAAAAAAAAAAAAAAAAAAAAAAAAAAAAAAAAAAAAAAAAAAAAAAAAAAAAAAAAAAAAAAAAAAAAAAAAAAAAAAAAAAAAAAAAAAAAAAAAAAAAAAAAAAAAAAAAAAAAAAAAAAAAAAAAAAAAAAAAAAAAAAAAAAAAAAAAAAAAAAAAAAAAAAAAAAAAAAAAAAAAAAAAAAAAAAAAAAAAAAAAAAAAAAAAAAAAAAAAAAAAAAAAAAAAAAAAAAAAAAAAAAAAAAAAAAAAAAAAAAAAAAAAAAAAAAAAAAAAAAAAAAAAAAAAAAAAAAAAAAAAAAAAAAAAAAAAAAAAAAAAAAAAAAAAAAAAAAAAAAAAAAAAAAAAAAAAAAAAAAAAAAAAAAAAAAAAAAAAAAAAAAAAAAAAAAAAAAAAAAAAAAAAAAAAAAAAAAAAAAAAAAAAAAAAAAAAAAAAAAAAAAAAAAAAAAAAAAAAAAAAAAAAAAAAAAAAAAAAAAAAAAAAAAAAAAAAAAAAAAAAAAAAAAAAAAAAAAAAAAAAAAAAAAAAAAAAAAAAAAAAAAAAAAAAAAAAAAAAAAAAAAAAAAAAAAAAAAAAAAAAAAAAAAAAAAAAAAAAAAAAAAAAAAAAAAAAAAAAAAAAAAAAAAAAAAAAAAAAAAAAAAAAAAAAAAAAAAAAAAAAAAAAAAAAAAAAAAAAAAAAAAAAAAAAAAAAAAAAAAAAAAAAAAAAAAAAAAAAAAAAAAAAAAAAAAAAAAAAAAAAAAAAAAAAAAAAAAAAAAAAAAAAAAAAAAAAAAAAAAAAAAAAAAAAAAAAAAAAAAAAAAAAAAAAAAAAAAAAAAAAAAAAAAAAAAAAAAAAAAAAAAAAAAAAAAAAAAAAAAAAAAAAAAAAAAAAAAAAAAAAAAAAAAAAAAAAAAAAAAAAAAAAAAAAAAAAAAAAAAAAAAAAAAAAAAAAAAAAAAAAAAAAAAAAAAAAAAAAAAAAAAAAAAAAAAAAAAAAAAAAAAAAAAAAAAAAAAAAAAAAAAAAAAAAAAAAAAAAAAAAAAAAAAAAAAAAAAAAAAAAAAAAAAAAAAAAAAAAAAAAAAAAAAAAAAAAAAAAAAAAAAAAAAAAAAAAAAAAAAAAAAAAAAAAAAAAAAAAAAAAAAAAAAAAAAAAAAAAAAAAAAAAAAAAAAAAAAAAAAAAAAAPZYQPzBCbKBjvP6pXa/NDujAJUkYmchNoW9wxIT2ZoUIqAJUfS0LR6A5rcS5mFE6qDOrVNYjz5U1syx3yaAybRgRzU=</c2pa:manifest></metadata><rect width="860" height="334" fill="#4C5844"/><path d="M0.5 333.5V0.5H859.5" stroke="#8C9284" fill="none"/><path d="M0.5 333.5H859.5V0.5" stroke="#292C21" fill="none"/><text x="16" y="26" font-family="Tahoma,Verdana,'DejaVu Sans',sans-serif" font-size="14" fill="#DEDFD6" text-anchor="start" xml:space="preserve" >net_graph — jvpts11</text><rect x="826" y="10" width="20" height="20" fill="#4C5844"/><path d="M826.5 29.5V10.5H845.5" stroke="#8C9284" fill="none"/><path d="M826.5 29.5H845.5V10.5" stroke="#292C21" fill="none"/><path d="M831 15L841 25M841 15L831 25" stroke="#DEDFD6" stroke-width="1.5"/><text x="20" y="60" font-family="'Lucida Console','Courier New','DejaVu Sans Mono',monospace" font-size="13" fill="#C4B550" text-anchor="start" xml:space="preserve" >] net_graph 3</text><rect x="16" y="70" width="300" height="170" fill="#3E4637"/><path d="M16.5 239.5V70.5H315.5" stroke="#292C21" fill="none"/><path d="M16.5 239.5H315.5V70.5" stroke="#8C9284" fill="none"/><text x="30" y="98" font-family="'Lucida Console','Courier New','DejaVu Sans Mono',monospace" font-size="13" fill="#A0AA95" text-anchor="start" xml:space="preserve" >contributions (1y)</text><text x="302" y="98" font-family="'Lucida Console','Courier New','DejaVu Sans Mono',monospace" font-size="13" fill="#DEDFD6" text-anchor="end" xml:space="preserve" >3,893</text><text x="30" y="123" font-family="'Lucida Console','Courier New','DejaVu Sans Mono',monospace" font-size="13" fill="#A0AA95" text-anchor="start" xml:space="preserve" >commits (1y)</text><text x="302" y="123" font-family="'Lucida Console','Courier New','DejaVu Sans Mono',monospace" font-size="13" fill="#DEDFD6" text-anchor="end" xml:space="preserve" >3,120</text><text x="30" y="148" font-family="'Lucida Console','Courier New','DejaVu Sans Mono',monospace" font-size="13" fill="#A0AA95" text-anchor="start" xml:space="preserve" >pull requests (1y)</text><text x="302" y="148" font-family="'Lucida Console','Courier New','DejaVu Sans Mono',monospace" font-size="13" fill="#DEDFD6" text-anchor="end" xml:space="preserve" >41</text><text x="30" y="173" font-family="'Lucida Console','Courier New','DejaVu Sans Mono',monospace" font-size="13" fill="#A0AA95" text-anchor="start" xml:space="preserve" >public repos</text><text x="302" y="173" font-family="'Lucida Console','Courier New','DejaVu Sans Mono',monospace" font-size="13" fill="#DEDFD6" text-anchor="end" xml:space="preserve" >37</text><text x="30" y="198" font-family="'Lucida Console','Courier New','DejaVu Sans Mono',monospace" font-size="13" fill="#A0AA95" text-anchor="start" xml:space="preserve" >stars earned</text><text x="302" y="198" font-family="'Lucida Console','Courier New','DejaVu Sans Mono',monospace" font-size="13" fill="#DEDFD6" text-anchor="end" xml:space="preserve" >2</text><text x="30" y="223" font-family="'Lucida Console','Courier New','DejaVu Sans Mono',monospace" font-size="13" fill="#A0AA95" text-anchor="start" xml:space="preserve" >followers</text><text x="302" y="223" font-family="'Lucida Console','Courier New','DejaVu Sans Mono',monospace" font-size="13" fill="#DEDFD6" text-anchor="end" xml:space="preserve" >6</text><text x="336" y="60" font-family="Tahoma,Verdana,'DejaVu Sans',sans-serif" font-size="12" fill="#A0AA95" text-anchor="start" xml:space="preserve" >Most used languages</text><rect x="332" y="70" width="512" height="170" fill="#3E4637"/><path d="M332.5 239.5V70.5H843.5" stroke="#292C21" fill="none"/><path d="M332.5 239.5H843.5V70.5" stroke="#8C9284" fill="none"/><g shape-rendering="crispEdges"><rect x="347.33" y="92.00" width="5.33" height="1.33" fill="#B587B2"/><rect x="346.00" y="93.33" width="1.33" height="1.33" fill="#B587B2"/><rect x="352.67" y="93.33" width="1.33" height="1.33" fill="#B587B2"/><rect x="356.67" y="93.33" width="1.33" height="1.33" fill="#DDDED7"/><rect x="359.33" y="93.33" width="1.33" height="1.33" fill="#DDDED7"/><rect x="346.00" y="94.67" width="1.33" height="1.33" fill="#B587B2"/><rect x="355.33" y="94.67" width="6.67" height="1.33" fill="#DDDED7"/><rect x="346.00" y="96.00" width="1.33" height="1.33" fill="#B587B2"/><rect x="356.67" y="96.00" width="1.33" height="1.33" fill="#DDDED7"/><rect x="359.33" y="96.00" width="1.33" height="1.33" fill="#DDDED7"/><rect x="346.00" y="97.33" width="1.33" height="1.33" fill="#B587B2"/><rect x="355.33" y="97.33" width="6.67" height="1.33" fill="#DDDED7"/><rect x="346.00" y="98.67" width="1.33" height="1.33" fill="#B587B2"/><rect x="352.67" y="98.67" width="1.33" height="1.33" fill="#B587B2"/><rect x="356.67" y="98.67" width="1.33" height="1.33" fill="#DDDED7"/><rect x="359.33" y="98.67" width="1.33" height="1.33" fill="#DDDED7"/><rect x="347.33" y="100.00" width="5.33" height="1.33" fill="#B587B2"/></g><text x="370" y="100" font-family="Tahoma,Verdana,'DejaVu Sans',sans-serif" font-size="13" fill="#DEDFD6" text-anchor="start" xml:space="preserve" >C#</text><rect x="450" y="89" width="304" height="14" fill="#292C21"/><rect x="452" y="91" width="114.0" height="10" fill="#AF8DAD"/><text x="830" y="100" font-family="'Lucida Console','Courier New','DejaVu Sans Mono',monospace" font-size="13" fill="#DEDFD6" text-anchor="end" xml:space="preserve" >38.0%</text><path transform="translate(346 116) scale(0.6667)" d="M11.915 0 11.7.215C9.515 2.4 7.47 6.39 6.046 10.483c-1.064 1.024-3.633 2.81-3.711 3.551-.093.87 1.746 2.611 1.55 3.235-.198.625-1.304 1.408-1.014 1.939.1.188.823.011 1.277-.491a13.389 13.389 0 0 0-.017 2.14c.076.906.27 1.668.643 2.232.372.563.956.911 1.667.911.397 0 .727-.114 1.024-.264.298-.149.571-.33.91-.5.68-.34 1.634-.666 3.53-.604 1.903.062 2.872.39 3.559.704.687.314 1.15.664 1.925.664.767 0 1.395-.336 1.807-.9.412-.563.631-1.33.72-2.24.06-.623.055-1.32 0-2.066.454.45 1.117.604 1.213.424.29-.53-.816-1.314-1.013-1.937-.198-.624 1.642-2.366 1.549-3.236-.08-.748-2.707-2.568-3.748-3.586C16.428 6.374 14.308 2.394 12.13.215zm.175 6.038a2.95 2.95 0 0 1 2.943 2.942 2.95 2.95 0 0 1-2.943 2.943A2.95 2.95 0 0 1 9.148 8.98a2.95 2.95 0 0 1 2.942-2.942zM8.685 7.983a3.515 3.515 0 0 0-.145.997c0 1.951 1.6 3.55 3.55 3.55 1.95 0 3.55-1.598 3.55-3.55 0-.329-.046-.648-.132-.951.334.095.64.208.915.336a42.699 42.699 0 0 1 2.042 5.829c.678 2.545 1.01 4.92.846 6.607-.082.844-.29 1.51-.606 1.94-.315.431-.713.651-1.315.651-.593 0-.932-.27-1.673-.61-.741-.338-1.825-.694-3.792-.758-1.974-.064-3.073.293-3.821.669-.375.188-.659.373-.911.5s-.466.2-.752.2c-.53 0-.876-.209-1.16-.64-.285-.43-.474-1.101-.545-1.948-.141-1.693.176-4.069.823-6.614a43.155 43.155 0 0 1 1.934-5.783c.348-.167.749-.31 1.192-.425zm-3.382 4.362a.216.216 0 0 1 .13.031c-.166.56-.323 1.116-.463 1.665a33.849 33.849 0 0 0-.547 2.555 3.9 3.9 0 0 0-.2-.39c-.58-1.012-.914-1.642-1.16-2.08.315-.24 1.679-1.755 2.24-1.781zm13.394.01c.562.027 1.926 1.543 2.24 1.783-.246.438-.58 1.068-1.16 2.08a4.428 4.428 0 0 0-.163.309 32.354 32.354 0 0 0-.562-2.49 40.579 40.579 0 0 0-.482-1.652.216.216 0 0 1 .127-.03z" fill="#E49B58"/><text x="370" y="128" font-family="Tahoma,Verdana,'DejaVu Sans',sans-serif" font-size="13" fill="#DEDFD6" text-anchor="start" xml:space="preserve" >Java</text><rect x="450" y="117" width="304" height="14" fill="#292C21"/><rect x="452" y="119" width="72.0" height="10" fill="#D29C6A"/><text x="830" y="128" font-family="'Lucida Console','Courier New','DejaVu Sans Mono',monospace" font-size="13" fill="#DEDFD6" text-anchor="end" xml:space="preserve" >24.0%</text><path transform="translate(346 144) scale(0.6667)" d="M14.25.18l.9.2.73.26.59.3.45.32.34.34.25.34.16.33.1.3.04.26.02.2-.01.13V8.5l-.05.63-.13.55-.21.46-.26.38-.3.31-.33.25-.35.19-.35.14-.33.1-.3.07-.26.04-.21.02H8.77l-.69.05-.59.14-.5.22-.41.27-.33.32-.27.35-.2.36-.15.37-.1.35-.07.32-.04.27-.02.21v3.06H3.17l-.21-.03-.28-.07-.32-.12-.35-.18-.36-.26-.36-.36-.35-.46-.32-.59-.28-.73-.21-.88-.14-1.05-.05-1.23.06-1.22.16-1.04.24-.87.32-.71.36-.57.4-.44.42-.33.42-.24.4-.16.36-.1.32-.05.24-.01h.16l.06.01h8.16v-.83H6.18l-.01-2.75-.02-.37.05-.34.11-.31.17-.28.25-.26.31-.23.38-.2.44-.18.51-.15.58-.12.64-.1.71-.06.77-.04.84-.02 1.27.05zm-6.3 1.98l-.23.33-.08.41.08.41.23.34.33.22.41.09.41-.09.33-.22.23-.34.08-.41-.08-.41-.23-.33-.33-.22-.41-.09-.41.09zm13.09 3.95l.28.06.32.12.35.18.36.27.36.35.35.47.32.59.28.73.21.88.14 1.04.05 1.23-.06 1.23-.16 1.04-.24.86-.32.71-.36.57-.4.45-.42.33-.42.24-.4.16-.36.09-.32.05-.24.02-.16-.01h-8.22v.82h5.84l.01 2.76.02.36-.05.34-.11.31-.17.29-.25.25-.31.24-.38.2-.44.17-.51.15-.58.13-.64.09-.71.07-.77.04-.84.01-1.27-.04-1.07-.14-.9-.2-.73-.25-.59-.3-.45-.33-.34-.34-.25-.34-.16-.33-.1-.3-.04-.25-.02-.2.01-.13v-5.34l.05-.64.13-.54.21-.46.26-.38.3-.32.33-.24.35-.2.35-.14.33-.1.3-.06.26-.04.21-.02.13-.01h5.84l.69-.05.59-.14.5-.21.41-.28.33-.32.27-.35.2-.36.15-.36.1-.35.07-.32.04-.28.02-.21V6.07h2.09l.14.01zm-6.47 14.25l-.23.33-.08.41.08.41.23.33.33.23.41.08.41-.08.33-.23.23-.33.08-.41-.08-.41-.23-.33-.33-.23-.41-.08-.41.08z" fill="#7AA1C2"/><text x="370" y="156" font-family="Tahoma,Verdana,'DejaVu Sans',sans-serif" font-size="13" fill="#DEDFD6" text-anchor="start" xml:space="preserve" >Python</text><rect x="450" y="145" width="304" height="14" fill="#292C21"/><rect x="452" y="147" width="54.0" height="10" fill="#83A1B9"/><text x="830" y="156" font-family="'Lucida Console','Courier New','DejaVu Sans Mono',monospace" font-size="13" fill="#DEDFD6" text-anchor="end" xml:space="preserve" >18.0%</text><path transform="translate(346 172) scale(0.6667)" d="M16.5921 9.1962s-.354-3.298-3.627-3.39c-3.2741-.09-4.9552 2.474-4.9552 6.14 0 3.6651 1.858 6.5972 5.0451 6.5972 3.184 0 3.5381-3.665 3.5381-3.665l6.1041.365s.36 3.31-2.196 5.836c-2.552 2.5241-5.6901 2.9371-7.8762 2.9201-2.19-.017-5.2261.034-8.1602-2.97-2.938-3.0101-3.436-5.9302-3.436-8.8002 0-2.8701.556-6.6702 4.047-9.5502C7.444.72 9.849 0 12.254 0c10.0422 0 10.7172 9.2602 10.7172 9.2602z" fill="#ADB9C7"/><text x="370" y="184" font-family="Tahoma,Verdana,'DejaVu Sans',sans-serif" font-size="13" fill="#DEDFD6" text-anchor="start" xml:space="preserve" >C</text><rect x="450" y="173" width="304" height="14" fill="#292C21"/><rect x="452" y="175" width="36.0" height="10" fill="#9E9E9E"/><text x="830" y="184" font-family="'Lucida Console','Courier New','DejaVu Sans Mono',monospace" font-size="13" fill="#DEDFD6" text-anchor="end" xml:space="preserve" >12.0%</text><path transform="translate(346 200) scale(0.6667)" d="M0 0h24v24H0V0zm22.034 18.276c-.175-1.095-.888-2.015-3.003-2.873-.736-.345-1.554-.585-1.797-1.14-.091-.33-.105-.51-.046-.705.15-.646.915-.84 1.515-.66.39.12.75.42.976.9 1.034-.676 1.034-.676 1.755-1.125-.27-.42-.404-.601-.586-.78-.63-.705-1.469-1.065-2.834-1.034l-.705.089c-.676.165-1.32.525-1.71 1.005-1.14 1.291-.811 3.541.569 4.471 1.365 1.02 3.361 1.244 3.616 2.205.24 1.17-.87 1.545-1.966 1.41-.811-.18-1.26-.586-1.755-1.336l-1.83 1.051c.21.48.45.689.81 1.109 1.74 1.756 6.09 1.666 6.871-1.004.029-.09.24-.705.074-1.65l.046.067zm-8.983-7.245h-2.248c0 1.938-.009 3.864-.009 5.805 0 1.232.063 2.363-.138 2.711-.33.689-1.18.601-1.566.48-.396-.196-.597-.466-.83-.855-.063-.105-.11-.196-.127-.196l-1.825 1.125c.305.63.75 1.172 1.324 1.517.855.51 2.004.675 3.207.405.783-.226 1.458-.691 1.811-1.411.51-.93.402-2.07.397-3.346.012-2.054 0-4.109 0-6.179l.004-.056z" fill="#DFD15D"/><text x="370" y="212" font-family="Tahoma,Verdana,'DejaVu Sans',sans-serif" font-size="13" fill="#DEDFD6" text-anchor="start" xml:space="preserve" >JavaScript</text><rect x="450" y="201" width="304" height="14" fill="#292C21"/><rect x="452" y="203" width="24.0" height="10" fill="#CEC57D"/><text x="830" y="212" font-family="'Lucida Console','Courier New','DejaVu Sans Mono',monospace" font-size="13" fill="#DEDFD6" text-anchor="end" xml:space="preserve" >8.0%</text><rect x="16" y="250" width="828" height="58" fill="#353C2F"/><path d="M16.5 307.5V250.5H843.5" stroke="#292C21" fill="none"/><path d="M16.5 307.5H843.5V250.5" stroke="#8C9284" fill="none"/><rect x="20.0" y="296.9" width="14.0" height="7.1" fill="#7A8458"/><rect x="35.5" y="288.0" width="14.0" height="16.0" fill="#A09A48"/><rect x="50.9" y="293.2" width="14.0" height="10.8" fill="#7A8458"/><rect x="66.4" y="286.1" width="14.0" height="17.9" fill="#A09A48"/><rect x="81.9" y="285.2" width="14.0" height="18.8" fill="#A09A48"/><rect x="97.4" y="302.1" width="14.0" height="1.9" fill="#7A8458"/><rect x="112.8" y="303.0" width="14.0" height="1.0" fill="#7A8458"/><rect x="128.3" y="289.9" width="14.0" height="14.1" fill="#7A8458"/><rect x="143.8" y="287.5" width="14.0" height="16.5" fill="#A09A48"/><rect x="159.2" y="298.4" width="14.0" height="5.6" fill="#7A8458"/><rect x="174.7" y="289.9" width="14.0" height="14.1" fill="#7A8458"/><rect x="190.2" y="287.5" width="14.0" height="16.5" fill="#A09A48"/><rect x="205.7" y="292.2" width="14.0" height="11.8" fill="#7A8458"/><rect x="221.1" y="299.8" width="14.0" height="4.2" fill="#7A8458"/><rect x="236.6" y="285.2" width="14.0" height="18.8" fill="#A09A48"/><rect x="252.1" y="288.5" width="14.0" height="15.5" fill="#7A8458"/><rect x="267.5" y="303.0" width="14.0" height="1.0" fill="#7A8458"/><rect x="283.0" y="302.1" width="14.0" height="1.9" fill="#7A8458"/><rect x="298.5" y="286.6" width="14.0" height="17.4" fill="#A09A48"/><rect x="314.0" y="295.1" width="14.0" height="8.9" fill="#7A8458"/><rect x="329.4" y="303.0" width="14.0" height="1.0" fill="#7A8458"/><rect x="344.9" y="296.0" width="14.0" height="8.0" fill="#7A8458"/><rect x="360.4" y="286.1" width="14.0" height="17.9" fill="#A09A48"/><rect x="375.8" y="292.7" width="14.0" height="11.3" fill="#7A8458"/><rect x="391.3" y="291.3" width="14.0" height="12.7" fill="#7A8458"/><rect x="406.8" y="287.1" width="14.0" height="16.9" fill="#A09A48"/><rect x="422.3" y="300.2" width="14.0" height="3.8" fill="#7A8458"/><rect x="437.7" y="293.2" width="14.0" height="10.8" fill="#7A8458"/><rect x="453.2" y="303.0" width="14.0" height="1.0" fill="#7A8458"/><rect x="468.7" y="289.4" width="14.0" height="14.6" fill="#7A8458"/><rect x="484.2" y="296.5" width="14.0" height="7.5" fill="#7A8458"/><rect x="499.6" y="291.3" width="14.0" height="12.7" fill="#7A8458"/><rect x="515.1" y="285.2" width="14.0" height="18.8" fill="#A09A48"/><rect x="530.6" y="295.1" width="14.0" height="8.9" fill="#7A8458"/><rect x="546.0" y="288.9" width="14.0" height="15.1" fill="#7A8458"/><rect x="561.5" y="292.7" width="14.0" height="11.3" fill="#7A8458"/><rect x="577.0" y="293.6" width="14.0" height="10.4" fill="#7A8458"/><rect x="592.5" y="286.6" width="14.0" height="17.4" fill="#A09A48"/><rect x="607.9" y="286.6" width="14.0" height="17.4" fill="#A09A48"/><rect x="623.4" y="259.8" width="14.0" height="44.2" fill="#C4B550"/><rect x="638.9" y="264.0" width="14.0" height="40.0" fill="#C4B550"/><rect x="654.3" y="264.0" width="14.0" height="40.0" fill="#C4B550"/><rect x="669.8" y="264.5" width="14.0" height="39.5" fill="#C4B550"/><rect x="685.3" y="264.5" width="14.0" height="39.5" fill="#C4B550"/><rect x="700.8" y="256.0" width="14.0" height="48.0" fill="#C4B550"/><rect x="716.2" y="265.9" width="14.0" height="38.1" fill="#C4B550"/><rect x="731.7" y="264.9" width="14.0" height="39.1" fill="#C4B550"/><rect x="747.2" y="264.9" width="14.0" height="39.1" fill="#C4B550"/><rect x="762.6" y="278.1" width="14.0" height="25.9" fill="#A09A48"/><rect x="778.1" y="273.9" width="14.0" height="30.1" fill="#A09A48"/><rect x="793.6" y="256.9" width="14.0" height="47.1" fill="#C4B550"/><rect x="809.1" y="277.2" width="14.0" height="26.8" fill="#A09A48"/><rect x="824.5" y="275.8" width="14.0" height="28.2" fill="#A09A48"/><text x="16" y="324" font-family="Tahoma,Verdana,'DejaVu Sans',sans-serif" font-size="11" fill="#A0AA95" text-anchor="start" xml:space="preserve" >contributions per week · last 12 months</text><text x="844" y="324" font-family="Tahoma,Verdana,'DejaVu Sans',sans-serif" font-size="11" fill="#A0AA95" text-anchor="end" xml:space="preserve" >peak 102/wk  ·  fps 144  ·  ping 12</text></svg>